<mxfile host="app.diagrams.net" agent="Mozilla/5.0 (Windows NT 10.0; Win64; x64) AppleWebKit/537.36 (KHTML, like Gecko) Chrome/134.0.0.0 Safari/537.36" version="26.1.0">
  <diagram id="C5RBs43oDa-KdzZeNtuy" name="Page-1">
    <mxGraphModel dx="794" dy="1851" grid="1" gridSize="10" guides="1" tooltips="1" connect="1" arrows="1" fold="1" page="1" pageScale="1" pageWidth="827" pageHeight="1169" math="0" shadow="0">
      <root>
        <mxCell id="WIyWlLk6GJQsqaUBKTNV-0" />
        <mxCell id="WIyWlLk6GJQsqaUBKTNV-1" parent="WIyWlLk6GJQsqaUBKTNV-0" />
        <mxCell id="0hJnIp_b2IKuKvgFVQQt-2" style="edgeStyle=orthogonalEdgeStyle;rounded=0;orthogonalLoop=1;jettySize=auto;html=1;entryX=0.5;entryY=0;entryDx=0;entryDy=0;" parent="WIyWlLk6GJQsqaUBKTNV-1" source="0hJnIp_b2IKuKvgFVQQt-0" target="0hJnIp_b2IKuKvgFVQQt-1" edge="1">
          <mxGeometry relative="1" as="geometry" />
        </mxCell>
        <mxCell id="0hJnIp_b2IKuKvgFVQQt-0" value="Start" style="strokeWidth=2;html=1;shape=mxgraph.flowchart.start_2;whiteSpace=wrap;" parent="WIyWlLk6GJQsqaUBKTNV-1" vertex="1">
          <mxGeometry x="50" y="-60" width="120" height="120" as="geometry" />
        </mxCell>
        <mxCell id="0hJnIp_b2IKuKvgFVQQt-4" style="edgeStyle=orthogonalEdgeStyle;rounded=0;orthogonalLoop=1;jettySize=auto;html=1;entryX=0.5;entryY=0;entryDx=0;entryDy=0;" parent="WIyWlLk6GJQsqaUBKTNV-1" source="0hJnIp_b2IKuKvgFVQQt-1" target="0hJnIp_b2IKuKvgFVQQt-3" edge="1">
          <mxGeometry relative="1" as="geometry" />
        </mxCell>
        <mxCell id="0hJnIp_b2IKuKvgFVQQt-1" value="Creation of two separate lists" style="rounded=1;whiteSpace=wrap;html=1;absoluteArcSize=1;arcSize=14;strokeWidth=2;" parent="WIyWlLk6GJQsqaUBKTNV-1" vertex="1">
          <mxGeometry x="60" y="120" width="100" height="100" as="geometry" />
        </mxCell>
        <mxCell id="0hJnIp_b2IKuKvgFVQQt-6" style="edgeStyle=orthogonalEdgeStyle;rounded=0;orthogonalLoop=1;jettySize=auto;html=1;entryX=0.5;entryY=0;entryDx=0;entryDy=0;" parent="WIyWlLk6GJQsqaUBKTNV-1" source="0hJnIp_b2IKuKvgFVQQt-3" target="0hJnIp_b2IKuKvgFVQQt-5" edge="1">
          <mxGeometry relative="1" as="geometry" />
        </mxCell>
        <mxCell id="0hJnIp_b2IKuKvgFVQQt-3" value="Contain 10 random numbers" style="rounded=1;whiteSpace=wrap;html=1;absoluteArcSize=1;arcSize=14;strokeWidth=2;" parent="WIyWlLk6GJQsqaUBKTNV-1" vertex="1">
          <mxGeometry x="60" y="290" width="100" height="100" as="geometry" />
        </mxCell>
        <mxCell id="1VgOl7zYtsieekUKWZTq-9" style="edgeStyle=orthogonalEdgeStyle;rounded=0;orthogonalLoop=1;jettySize=auto;html=1;entryX=0;entryY=0.5;entryDx=0;entryDy=0;" parent="WIyWlLk6GJQsqaUBKTNV-1" source="0hJnIp_b2IKuKvgFVQQt-5" edge="1">
          <mxGeometry relative="1" as="geometry">
            <mxPoint x="210" y="510" as="targetPoint" />
          </mxGeometry>
        </mxCell>
        <mxCell id="0hJnIp_b2IKuKvgFVQQt-5" value="Contain 10 random numbers" style="rounded=1;whiteSpace=wrap;html=1;absoluteArcSize=1;arcSize=14;strokeWidth=2;" parent="WIyWlLk6GJQsqaUBKTNV-1" vertex="1">
          <mxGeometry x="51.25" y="460" width="118.75" height="100" as="geometry" />
        </mxCell>
        <mxCell id="0hJnIp_b2IKuKvgFVQQt-12" style="edgeStyle=orthogonalEdgeStyle;rounded=0;orthogonalLoop=1;jettySize=auto;html=1;" parent="WIyWlLk6GJQsqaUBKTNV-1" source="0hJnIp_b2IKuKvgFVQQt-7" edge="1">
          <mxGeometry relative="1" as="geometry">
            <mxPoint x="646.5" as="targetPoint" />
          </mxGeometry>
        </mxCell>
        <mxCell id="0hJnIp_b2IKuKvgFVQQt-14" value="True" style="edgeLabel;html=1;align=center;verticalAlign=middle;resizable=0;points=[];" parent="0hJnIp_b2IKuKvgFVQQt-12" vertex="1" connectable="0">
          <mxGeometry x="-0.204" y="-4" relative="1" as="geometry">
            <mxPoint as="offset" />
          </mxGeometry>
        </mxCell>
        <mxCell id="0hJnIp_b2IKuKvgFVQQt-7" value="Player one &amp;gt; Player two" style="strokeWidth=2;html=1;shape=mxgraph.flowchart.decision;whiteSpace=wrap;" parent="WIyWlLk6GJQsqaUBKTNV-1" vertex="1">
          <mxGeometry x="380" y="-70" width="140" height="140" as="geometry" />
        </mxCell>
        <mxCell id="0hJnIp_b2IKuKvgFVQQt-13" value="Increment Player one + 1" style="rounded=1;whiteSpace=wrap;html=1;absoluteArcSize=1;arcSize=14;strokeWidth=2;" parent="WIyWlLk6GJQsqaUBKTNV-1" vertex="1">
          <mxGeometry x="646.5" y="-50" width="100" height="100" as="geometry" />
        </mxCell>
        <mxCell id="1VgOl7zYtsieekUKWZTq-2" style="edgeStyle=orthogonalEdgeStyle;rounded=0;orthogonalLoop=1;jettySize=auto;html=1;entryX=0;entryY=0.5;entryDx=0;entryDy=0;entryPerimeter=0;" parent="WIyWlLk6GJQsqaUBKTNV-1" target="0hJnIp_b2IKuKvgFVQQt-7" edge="1">
          <mxGeometry relative="1" as="geometry">
            <mxPoint x="340" y="510" as="sourcePoint" />
          </mxGeometry>
        </mxCell>
        <mxCell id="1VgOl7zYtsieekUKWZTq-12" style="edgeStyle=orthogonalEdgeStyle;rounded=0;orthogonalLoop=1;jettySize=auto;html=1;exitX=1;exitY=0.5;exitDx=0;exitDy=0;exitPerimeter=0;" parent="WIyWlLk6GJQsqaUBKTNV-1" source="1VgOl7zYtsieekUKWZTq-3" target="1VgOl7zYtsieekUKWZTq-13" edge="1">
          <mxGeometry relative="1" as="geometry">
            <mxPoint x="660" y="205" as="targetPoint" />
          </mxGeometry>
        </mxCell>
        <mxCell id="1VgOl7zYtsieekUKWZTq-14" value="True" style="edgeLabel;html=1;align=center;verticalAlign=middle;resizable=0;points=[];" parent="1VgOl7zYtsieekUKWZTq-12" vertex="1" connectable="0">
          <mxGeometry x="-0.0857" relative="1" as="geometry">
            <mxPoint as="offset" />
          </mxGeometry>
        </mxCell>
        <mxCell id="1VgOl7zYtsieekUKWZTq-15" style="edgeStyle=orthogonalEdgeStyle;rounded=0;orthogonalLoop=1;jettySize=auto;html=1;exitX=0.5;exitY=1;exitDx=0;exitDy=0;exitPerimeter=0;" parent="WIyWlLk6GJQsqaUBKTNV-1" source="1VgOl7zYtsieekUKWZTq-3" edge="1">
          <mxGeometry relative="1" as="geometry">
            <mxPoint x="450" y="340" as="targetPoint" />
          </mxGeometry>
        </mxCell>
        <mxCell id="1VgOl7zYtsieekUKWZTq-16" value="False" style="edgeLabel;html=1;align=center;verticalAlign=middle;resizable=0;points=[];" parent="1VgOl7zYtsieekUKWZTq-15" vertex="1" connectable="0">
          <mxGeometry x="-0.2624" y="2" relative="1" as="geometry">
            <mxPoint as="offset" />
          </mxGeometry>
        </mxCell>
        <mxCell id="1VgOl7zYtsieekUKWZTq-3" value="Player two &amp;gt; Player one" style="strokeWidth=2;html=1;shape=mxgraph.flowchart.decision;whiteSpace=wrap;" parent="WIyWlLk6GJQsqaUBKTNV-1" vertex="1">
          <mxGeometry x="380" y="140" width="140" height="130" as="geometry" />
        </mxCell>
        <mxCell id="1VgOl7zYtsieekUKWZTq-10" style="edgeStyle=orthogonalEdgeStyle;rounded=0;orthogonalLoop=1;jettySize=auto;html=1;entryX=0.5;entryY=0;entryDx=0;entryDy=0;entryPerimeter=0;" parent="WIyWlLk6GJQsqaUBKTNV-1" source="0hJnIp_b2IKuKvgFVQQt-7" target="1VgOl7zYtsieekUKWZTq-3" edge="1">
          <mxGeometry relative="1" as="geometry" />
        </mxCell>
        <mxCell id="1VgOl7zYtsieekUKWZTq-11" value="False" style="edgeLabel;html=1;align=center;verticalAlign=middle;resizable=0;points=[];" parent="1VgOl7zYtsieekUKWZTq-10" vertex="1" connectable="0">
          <mxGeometry x="-0.2857" y="-1" relative="1" as="geometry">
            <mxPoint as="offset" />
          </mxGeometry>
        </mxCell>
        <mxCell id="1VgOl7zYtsieekUKWZTq-13" value="Increment Player two + 1" style="rounded=1;whiteSpace=wrap;html=1;absoluteArcSize=1;arcSize=14;strokeWidth=2;" parent="WIyWlLk6GJQsqaUBKTNV-1" vertex="1">
          <mxGeometry x="660" y="155" width="100" height="100" as="geometry" />
        </mxCell>
        <mxCell id="PPcXVhdm1KKsno6t_R-9-6" style="edgeStyle=orthogonalEdgeStyle;rounded=0;orthogonalLoop=1;jettySize=auto;html=1;entryX=0;entryY=0.5;entryDx=0;entryDy=0;" edge="1" parent="WIyWlLk6GJQsqaUBKTNV-1" source="1VgOl7zYtsieekUKWZTq-17" target="PPcXVhdm1KKsno6t_R-9-5">
          <mxGeometry relative="1" as="geometry">
            <mxPoint x="560" y="390" as="targetPoint" />
          </mxGeometry>
        </mxCell>
        <mxCell id="1VgOl7zYtsieekUKWZTq-17" value="Continue" style="rounded=1;whiteSpace=wrap;html=1;absoluteArcSize=1;arcSize=14;strokeWidth=2;" parent="WIyWlLk6GJQsqaUBKTNV-1" vertex="1">
          <mxGeometry x="400" y="340" width="100" height="100" as="geometry" />
        </mxCell>
        <mxCell id="PPcXVhdm1KKsno6t_R-9-8" style="edgeStyle=orthogonalEdgeStyle;rounded=0;orthogonalLoop=1;jettySize=auto;html=1;entryX=1;entryY=0.5;entryDx=0;entryDy=0;" edge="1" parent="WIyWlLk6GJQsqaUBKTNV-1" source="PPcXVhdm1KKsno6t_R-9-0" target="PPcXVhdm1KKsno6t_R-9-2">
          <mxGeometry relative="1" as="geometry" />
        </mxCell>
        <mxCell id="PPcXVhdm1KKsno6t_R-9-0" value="playerOneLowest = min&lt;div&gt;playerOneLowestIndex&lt;/div&gt;" style="rounded=1;whiteSpace=wrap;html=1;absoluteArcSize=1;arcSize=14;strokeWidth=2;" vertex="1" parent="WIyWlLk6GJQsqaUBKTNV-1">
          <mxGeometry x="627" y="490" width="150" height="110" as="geometry" />
        </mxCell>
        <mxCell id="PPcXVhdm1KKsno6t_R-9-9" style="edgeStyle=orthogonalEdgeStyle;rounded=0;orthogonalLoop=1;jettySize=auto;html=1;entryX=0.5;entryY=0;entryDx=0;entryDy=0;" edge="1" parent="WIyWlLk6GJQsqaUBKTNV-1" source="PPcXVhdm1KKsno6t_R-9-2" target="PPcXVhdm1KKsno6t_R-9-3">
          <mxGeometry relative="1" as="geometry" />
        </mxCell>
        <mxCell id="PPcXVhdm1KKsno6t_R-9-2" value="playerTwoHighest = max&lt;div&gt;playerTwoHighestIndex&lt;/div&gt;" style="rounded=1;whiteSpace=wrap;html=1;absoluteArcSize=1;arcSize=14;strokeWidth=2;" vertex="1" parent="WIyWlLk6GJQsqaUBKTNV-1">
          <mxGeometry x="390" y="490" width="150" height="110" as="geometry" />
        </mxCell>
        <mxCell id="PPcXVhdm1KKsno6t_R-9-14" style="edgeStyle=orthogonalEdgeStyle;rounded=0;orthogonalLoop=1;jettySize=auto;html=1;" edge="1" parent="WIyWlLk6GJQsqaUBKTNV-1" source="PPcXVhdm1KKsno6t_R-9-3">
          <mxGeometry relative="1" as="geometry">
            <mxPoint x="465" y="830" as="targetPoint" />
          </mxGeometry>
        </mxCell>
        <mxCell id="PPcXVhdm1KKsno6t_R-9-3" value="playerTwoLowest = min&lt;div&gt;playerTwoLowestIndex&lt;/div&gt;" style="rounded=1;whiteSpace=wrap;html=1;absoluteArcSize=1;arcSize=14;strokeWidth=2;" vertex="1" parent="WIyWlLk6GJQsqaUBKTNV-1">
          <mxGeometry x="395" y="660" width="140" height="110" as="geometry" />
        </mxCell>
        <mxCell id="PPcXVhdm1KKsno6t_R-9-5" value="playerOneHighest = max&lt;div&gt;playerOneHighestIndex&lt;/div&gt;" style="rounded=1;whiteSpace=wrap;html=1;absoluteArcSize=1;arcSize=14;strokeWidth=2;" vertex="1" parent="WIyWlLk6GJQsqaUBKTNV-1">
          <mxGeometry x="627" y="340" width="139" height="100" as="geometry" />
        </mxCell>
        <mxCell id="PPcXVhdm1KKsno6t_R-9-13" style="edgeStyle=orthogonalEdgeStyle;rounded=0;orthogonalLoop=1;jettySize=auto;html=1;entryX=0.46;entryY=-0.009;entryDx=0;entryDy=0;entryPerimeter=0;" edge="1" parent="WIyWlLk6GJQsqaUBKTNV-1" source="PPcXVhdm1KKsno6t_R-9-5" target="PPcXVhdm1KKsno6t_R-9-0">
          <mxGeometry relative="1" as="geometry" />
        </mxCell>
        <mxCell id="PPcXVhdm1KKsno6t_R-9-16" value="PlayerOneWins = 0&lt;div&gt;PlayerTwoWins = 0&lt;/div&gt;" style="shape=parallelogram;html=1;strokeWidth=2;perimeter=parallelogramPerimeter;whiteSpace=wrap;rounded=1;arcSize=12;size=0.23;" vertex="1" parent="WIyWlLk6GJQsqaUBKTNV-1">
          <mxGeometry x="190" y="460" width="170" height="100" as="geometry" />
        </mxCell>
        <mxCell id="PPcXVhdm1KKsno6t_R-9-18" style="edgeStyle=orthogonalEdgeStyle;rounded=0;orthogonalLoop=1;jettySize=auto;html=1;" edge="1" parent="WIyWlLk6GJQsqaUBKTNV-1" source="PPcXVhdm1KKsno6t_R-9-17">
          <mxGeometry relative="1" as="geometry">
            <mxPoint x="470" y="1010" as="targetPoint" />
          </mxGeometry>
        </mxCell>
        <mxCell id="PPcXVhdm1KKsno6t_R-9-17" value="Display several results" style="strokeWidth=2;html=1;shape=mxgraph.flowchart.display;whiteSpace=wrap;" vertex="1" parent="WIyWlLk6GJQsqaUBKTNV-1">
          <mxGeometry x="380" y="830" width="180" height="110" as="geometry" />
        </mxCell>
        <mxCell id="PPcXVhdm1KKsno6t_R-9-19" value="End" style="strokeWidth=2;html=1;shape=mxgraph.flowchart.terminator;whiteSpace=wrap;" vertex="1" parent="WIyWlLk6GJQsqaUBKTNV-1">
          <mxGeometry x="395" y="1010" width="170" height="80" as="geometry" />
        </mxCell>
      </root>
    </mxGraphModel>
  </diagram>
</mxfile>
